<svg width="18" height="13" viewBox="0 0 18 13" fill="none" xmlns="http://www.w3.org/2000/svg">
<path fill-rule="evenodd" clip-rule="evenodd" d="M1 2.5C0.447716 2.5 0 2.05228 0 1.5C0 0.947715 0.447715 0.5 1 0.5H17C17.5523 0.5 18 0.947715 18 1.5C18 2.05228 17.5523 2.5 17 2.5H1ZM0 6.5C0 7.05228 0.447715 7.5 1 7.5H17C17.5523 7.5 18 7.05228 18 6.5C18 5.94772 17.5523 5.5 17 5.5H1C0.447716 5.5 0 5.94772 0 6.5ZM0 11.5C0 12.0523 0.447715 12.5 1 12.5H17C17.5523 12.5 18 12.0523 18 11.5C18 10.9477 17.5523 10.5 17 10.5H1C0.447716 10.5 0 10.9477 0 11.5Z" fill="#0671E0"/>
</svg>
